<svg width="469" height="521" viewBox="0 0 469 521" fill="none" xmlns="http://www.w3.org/2000/svg">
<path d="M416.502 426.902C416.502 470.533 381.132 505.903 337.502 505.903H127.071C83.4406 505.903 48.0711 470.534 48.0709 426.903V181.694C48.0709 179.485 49.8617 177.694 52.0709 177.694H412.502C414.711 177.694 416.502 179.485 416.502 181.694V426.902ZM204.329 78.6416C204.329 80.8507 206.12 82.6416 208.329 82.6416H259.968C262.177 82.6416 263.968 80.8507 263.968 78.6416V27C263.968 24.7909 265.759 23 267.968 23H328.928C331.137 23 332.928 24.7909 332.928 27V78.6416C332.928 80.8507 334.719 82.6416 336.928 82.6416H363.619C365.423 82.6416 367.003 81.4349 367.478 79.6952L381.99 26.5445C382.462 24.817 384.024 23.6135 385.815 23.5982L450.73 23.0444C453.36 23.022 455.295 25.4992 454.637 28.045L420.114 161.653C420.084 161.77 419.979 161.852 419.858 161.852H419.594C419.594 161.852 419.593 161.852 419.593 161.852C419.593 161.852 419.593 161.853 419.593 161.853H48.2771C47.9965 161.853 47.7691 161.625 47.7691 161.345C47.7691 161.307 47.7649 161.27 47.7567 161.233L42.4322 137.584L14.1283 28.045C13.4705 25.4992 15.4059 23.022 18.0353 23.0444L82.9518 23.5982C84.7425 23.6135 86.3048 24.817 86.7765 26.5445L101.289 79.6952C101.764 81.4349 103.344 82.6416 105.148 82.6416H131.369C133.578 82.6416 135.369 80.8507 135.369 78.6416V27C135.369 24.7909 137.16 23 139.369 23H200.329C202.538 23 204.329 24.7909 204.329 27V78.6416Z" fill="#1171E6"/>
<path d="M233.671 265.219C262.314 265.219 285.534 288.44 285.534 317.083C285.534 333.745 277.675 348.57 265.463 358.058L286.269 401.775C287.847 405.093 285.428 408.923 281.754 408.924H183.429C179.754 408.923 177.335 405.093 178.914 401.775L200.319 356.797C189.003 347.283 181.809 333.024 181.809 317.083C181.809 288.44 205.028 265.22 233.671 265.219Z" fill="white"/>
</svg>
