<svg width="648" height="644" viewBox="0 0 648 644" fill="none" xmlns="http://www.w3.org/2000/svg">
<path d="M548.828 404.642C548.827 530.208 447.01 632 321.411 632C195.812 632 93.9947 530.208 93.994 404.642V238.904C93.994 232.287 99.359 226.924 105.977 226.924H536.845C543.463 226.924 548.828 232.287 548.828 238.904V404.642Z" fill="#1171E6"/>
<path d="M286.898 97.631C286.898 104.247 292.263 109.611 298.881 109.611H348.539C355.157 109.611 360.522 104.247 360.522 97.631V47.9799C360.522 41.3636 365.887 36 372.505 36H433.673C440.291 36 445.656 41.3636 445.656 47.9799V97.631C445.656 104.247 451.021 109.611 457.639 109.611H478.165C483.568 109.611 488.302 105.997 489.725 100.786L504.82 45.516C506.233 40.3422 510.914 36.7377 516.278 36.692L581.909 36.133C589.785 36.0659 595.583 43.4847 593.613 51.1093L553.291 207.127C553.254 207.271 553.124 207.372 552.975 207.372L552.648 207.373L94.2438 207.375C93.9006 207.375 93.6224 207.096 93.6224 206.753C93.6224 206.707 93.6174 206.662 93.6073 206.617L87.04 177.451L54.3874 51.1094C52.4168 43.4848 58.2147 36.0659 66.0915 36.133L131.722 36.692C137.086 36.7377 141.767 40.3422 143.18 45.516L158.275 100.786C159.698 105.997 164.432 109.611 169.834 109.611H189.782C196.4 109.611 201.765 104.247 201.765 97.631V47.9799C201.765 41.3636 207.13 36 213.748 36H274.915C281.533 36 286.898 41.3636 286.898 47.9799V97.631Z" fill="#1171E6"/>
<path d="M323.122 334.947C358.482 334.947 387.15 363.605 387.15 398.956C387.15 419.522 377.444 437.818 362.368 449.529L382.062 490.897C386.793 500.833 379.545 512.305 368.538 512.306H275.04C264.032 512.306 256.785 500.834 261.516 490.897L281.948 447.973C267.977 436.231 259.096 418.631 259.096 398.956C259.096 363.605 287.761 334.948 323.122 334.947Z" fill="white"/>
</svg>
